<svg width="300" height="300" viewBox="0 0 300 300" fill="none" xmlns="http://www.w3.org/2000/svg">
<rect width="300" height="300" fill="#9d9090"/>
<path d="M60 119.76C60 70.5477 70.5477 60 119.76 60H180.24C229.453 60 240 70.5477 240 119.76V180.24C240 229.453 229.453 240 180.24 240H119.76C70.5477 240 60 229.453 60 180.24V119.76Z" fill="white"/>
<path d="M118.283 104.327C118.283 111.602 112.403 117.5 105.151 117.5C97.8986 117.5 92.0192 111.602 92.0192 104.327C92.0192 97.0516 97.8986 91.1538 105.151 91.1538C112.403 91.1538 118.283 97.0516 118.283 104.327Z" fill="#2D2A2E"/>
<path d="M118.283 196.539C118.283 203.814 112.403 209.712 105.151 209.712C97.8986 209.712 92.0192 203.814 92.0192 196.539C92.0192 189.263 97.8986 183.366 105.151 183.366C112.403 183.366 118.283 189.263 118.283 196.539Z" fill="#2D2A2E"/>
<path d="M207.115 104.327C207.115 111.602 201.236 117.5 193.984 117.5C186.731 117.5 180.852 111.602 180.852 104.327C180.852 97.0516 186.731 91.1538 193.984 91.1538C201.236 91.1538 207.115 97.0516 207.115 104.327Z" fill="#2D2A2E"/>
<path d="M207.115 196.539C207.115 203.814 201.236 209.712 193.984 209.712C186.731 209.712 180.852 203.814 180.852 196.539C180.852 189.263 186.731 183.366 193.984 183.366C201.236 183.366 207.115 189.263 207.115 196.539Z" fill="#2D2A2E"/>
<path d="M163.085 150.045C163.085 157.32 157.206 163.219 149.953 163.219C142.701 163.219 136.822 157.32 136.822 150.045C136.822 142.77 142.701 136.872 149.953 136.872C157.206 136.872 163.085 142.77 163.085 150.045Z" fill="#2D2A2E"/>
</svg>
